<mxfile host="65bd71144e">
    <diagram id="cwhXCv2aDeDq9qGCs0LC" name="onConnect">
        <mxGraphModel dx="446" dy="1466" grid="1" gridSize="10" guides="1" tooltips="1" connect="1" arrows="1" fold="1" page="1" pageScale="1" pageWidth="850" pageHeight="1100" math="0" shadow="0">
            <root>
                <mxCell id="0"/>
                <mxCell id="1" parent="0"/>
                <mxCell id="3" value="Pool" style="swimlane;childLayout=stackLayout;resizeParent=1;resizeParentMax=0;startSize=20;html=1;" vertex="1" parent="1">
                    <mxGeometry x="20.000000000000455" y="-1080" width="440" height="1140" as="geometry"/>
                </mxCell>
                <mxCell id="4" value="client" style="swimlane;startSize=20;html=1;" vertex="1" parent="3">
                    <mxGeometry y="20" width="120" height="1120" as="geometry"/>
                </mxCell>
                <mxCell id="9" value="" style="edgeStyle=none;html=1;" edge="1" parent="4" source="7" target="8">
                    <mxGeometry relative="1" as="geometry"/>
                </mxCell>
                <mxCell id="7" value="connect" style="strokeWidth=2;html=1;shape=mxgraph.flowchart.start_2;whiteSpace=wrap;" vertex="1" parent="4">
                    <mxGeometry x="25" y="30" width="70" height="70" as="geometry"/>
                </mxCell>
                <mxCell id="8" value="&lt;div style=&quot;color: rgb(169, 177, 214); background-color: rgb(26, 27, 38); font-family: Consolas, &amp;quot;Courier New&amp;quot;, monospace; font-size: 14px; line-height: 19px;&quot;&gt;&lt;span style=&quot;color: #9ece6a;&quot;&gt;contacts:getAll&lt;/span&gt;&lt;/div&gt;&lt;div style=&quot;color: rgb(169, 177, 214); background-color: rgb(26, 27, 38); font-family: Consolas, &amp;quot;Courier New&amp;quot;, monospace; font-size: 14px; line-height: 19px;&quot;&gt;&lt;span style=&quot;color: #9ece6a;&quot;&gt;chats:getMy&lt;/span&gt;&lt;/div&gt;&lt;div style=&quot;color: rgb(169, 177, 214); background-color: rgb(26, 27, 38); font-family: Consolas, &amp;quot;Courier New&amp;quot;, monospace; font-size: 14px; line-height: 19px;&quot;&gt;&lt;span style=&quot;color: #9ece6a;&quot;&gt;&lt;br&gt;&lt;/span&gt;&lt;/div&gt;" style="whiteSpace=wrap;html=1;strokeWidth=2;" vertex="1" parent="4">
                    <mxGeometry y="170" width="120" height="75" as="geometry"/>
                </mxCell>
                <mxCell id="12" value="populate:&lt;br&gt;1.&amp;nbsp;&lt;b&gt;contacts&lt;/b&gt; map by _id&lt;br&gt;2. me&lt;br&gt;3. blockedList (array)" style="whiteSpace=wrap;html=1;strokeWidth=2;align=left;" vertex="1" parent="4">
                    <mxGeometry y="290" width="120" height="80" as="geometry"/>
                </mxCell>
                <mxCell id="16" value="populate:&lt;br&gt;1. private chats&lt;br&gt;&lt;div style=&quot;&quot;&gt;&lt;span style=&quot;background-color: initial;&quot;&gt;2. chats&lt;/span&gt;&lt;/div&gt;&lt;div style=&quot;&quot;&gt;&lt;div style=&quot;color: rgb(204, 204, 204); background-color: rgb(31, 31, 31); font-family: Consolas, &amp;quot;Courier New&amp;quot;, monospace; font-size: 14px; line-height: 19px;&quot;&gt;&lt;span style=&quot;color: #ce9178;&quot;&gt;messages:get&lt;/span&gt;&lt;/div&gt;&lt;/div&gt;" style="whiteSpace=wrap;html=1;strokeWidth=2;align=left;" vertex="1" parent="4">
                    <mxGeometry y="400" width="120" height="90" as="geometry"/>
                </mxCell>
                <mxCell id="20" value="populate:&lt;br&gt;1.&amp;nbsp;&lt;span style=&quot;color: rgb(220, 220, 170); background-color: rgb(31, 31, 31); font-family: Consolas, &amp;quot;Courier New&amp;quot;, monospace; font-size: 14px;&quot;&gt;MessageGroups&lt;/span&gt;" style="whiteSpace=wrap;html=1;align=left;strokeWidth=2;" vertex="1" parent="4">
                    <mxGeometry x="-4.547473508864641e-13" y="520" width="120" height="60" as="geometry"/>
                </mxCell>
                <mxCell id="5" value="server" style="swimlane;startSize=20;html=1;" vertex="1" parent="3">
                    <mxGeometry x="120" y="20" width="200" height="1120" as="geometry"/>
                </mxCell>
                <mxCell id="10" value="contacts:received&lt;br&gt;&amp;lt;user[]&amp;gt;" style="whiteSpace=wrap;html=1;strokeWidth=2;" vertex="1" parent="5">
                    <mxGeometry x="80" y="185" width="120" height="60" as="geometry"/>
                </mxCell>
                <mxCell id="15" value="&lt;span style=&quot;color: rgb(158, 206, 106); background-color: rgb(26, 27, 38); font-family: Consolas, &amp;quot;Courier New&amp;quot;, monospace; font-size: 14px;&quot;&gt;chats:received&lt;/span&gt;&lt;br&gt;&amp;lt;group[]&amp;gt;&lt;br&gt;&lt;br&gt;join all chats&lt;br&gt;(groups, and private chats with contacts that are not blocked)" style="whiteSpace=wrap;html=1;strokeWidth=2;" vertex="1" parent="5">
                    <mxGeometry x="80" y="290" width="120" height="110" as="geometry"/>
                </mxCell>
                <mxCell id="18" value="&lt;div style=&quot;color: rgb(169, 177, 214); background-color: rgb(26, 27, 38); font-family: Consolas, &amp;quot;Courier New&amp;quot;, monospace; font-size: 14px; line-height: 19px;&quot;&gt;&lt;span style=&quot;color: #9ece6a;&quot;&gt;message:received&lt;/span&gt;&lt;/div&gt;" style="whiteSpace=wrap;html=1;align=left;strokeWidth=2;" vertex="1" parent="5">
                    <mxGeometry x="80" y="415" width="120" height="85" as="geometry"/>
                </mxCell>
                <mxCell id="6" value="Lane 3" style="swimlane;startSize=20;html=1;" vertex="1" parent="3">
                    <mxGeometry x="320" y="20" width="120" height="1120" as="geometry"/>
                </mxCell>
                <mxCell id="11" value="" style="edgeStyle=none;html=1;" edge="1" parent="3" source="8" target="10">
                    <mxGeometry relative="1" as="geometry"/>
                </mxCell>
                <mxCell id="13" value="" style="edgeStyle=none;html=1;" edge="1" parent="3" source="10" target="12">
                    <mxGeometry relative="1" as="geometry"/>
                </mxCell>
                <mxCell id="14" style="edgeStyle=none;html=1;entryX=0;entryY=0;entryDx=0;entryDy=0;" edge="1" parent="3" source="8" target="15">
                    <mxGeometry relative="1" as="geometry">
                        <mxPoint x="189.99999999999955" y="300" as="targetPoint"/>
                    </mxGeometry>
                </mxCell>
                <mxCell id="17" value="" style="edgeStyle=none;html=1;" edge="1" parent="3" source="15" target="16">
                    <mxGeometry relative="1" as="geometry"/>
                </mxCell>
                <mxCell id="19" value="" style="edgeStyle=none;html=1;" edge="1" parent="3" source="16" target="18">
                    <mxGeometry relative="1" as="geometry"/>
                </mxCell>
                <mxCell id="21" style="edgeStyle=none;html=1;entryX=1;entryY=0.5;entryDx=0;entryDy=0;" edge="1" parent="3" source="18" target="20">
                    <mxGeometry relative="1" as="geometry"/>
                </mxCell>
            </root>
        </mxGraphModel>
    </diagram>
</mxfile>